<svg xmlns="http://www.w3.org/2000/svg" viewBox="0 0 837 182" role="img" aria-label="Wayword wordmark">
  <g fill="#111">
    <text x="6" y="128" font-family="Georgia, 'Times New Roman', serif" font-size="118" letter-spacing="-1.4">Wayw</text>
    <text x="548" y="128" font-family="Georgia, 'Times New Roman', serif" font-size="118" letter-spacing="-1.0">rd</text>
  </g>

  <g fill="none" stroke="#111" stroke-width="3.2" stroke-linejoin="round" stroke-linecap="round" transform="translate(430 89)">
    <path d="M0,-64 C22,-66 50,-56 62,-35 C74,-15 72,14 58,36 C44,58 18,68 -8,66 C-34,64 -56,50 -64,26 C-72,2 -66,-26 -48,-44 C-30,-62 -10,-64 0,-64 Z"/>
    <path d="M0,-56 C20,-58 43,-50 53,-32 C63,-14 62,10 50,29 C38,48 16,58 -6,56 C-28,54 -47,42 -54,22 C-61,2 -56,-22 -40,-38 C-24,-54 -8,-56 0,-56 Z"/>
    <path d="M0,-49 C17,-50 37,-44 46,-28 C55,-12 54,8 44,24 C34,40 14,49 -4,48 C-24,47 -40,36 -46,18 C-52,0 -48,-19 -35,-33 C-22,-46 -8,-49 0,-49 Z"/>
    <path d="M0,-42 C15,-43 32,-38 40,-24 C48,-10 47,6 38,20 C29,34 12,42 -3,42 C-20,41 -34,31 -39,15 C-44,-1 -40,-16 -30,-28 C-20,-39 -7,-42 0,-42 Z"/>
    <path d="M0,-35 C12,-36 27,-32 33,-20 C40,-8 39,5 32,16 C25,28 10,35 -2,35 C-16,34 -28,26 -32,13 C-36,0 -33,-13 -25,-23 C-17,-33 -6,-35 0,-35 Z"/>
    <path d="M0,-29 C10,-30 22,-27 28,-17 C33,-7 33,4 27,13 C21,22 9,29 -2,29 C-13,28 -23,22 -26,11 C-29,0 -27,-11 -20,-19 C-14,-27 -5,-29 0,-29 Z"/>
    <path d="M0,-23 C8,-24 18,-21 22,-13 C27,-6 26,3 22,10 C17,18 7,23 -1,23 C-10,22 -18,18 -21,9 C-23,0 -22,-9 -16,-15 C-11,-21 -4,-23 0,-23 Z"/>
    <path d="M0,-18 C6,-19 14,-17 18,-10 C22,-5 21,2 18,8 C14,14 6,18 -1,18 C-8,18 -14,14 -17,7 C-19,0 -18,-7 -13,-12 C-9,-17 -3,-18 0,-18 Z"/>
    <path d="M0,-13 C5,-14 10,-12 13,-8 C16,-4 16,2 13,6 C10,10 5,13 -1,13 C-6,13 -11,10 -13,5 C-15,0 -14,-5 -10,-9 C-7,-12 -2,-13 0,-13 Z"/>
    <path d="M0,-9 C3,-10 7,-8 9,-6 C11,-3 11,1 9,4 C7,7 4,9 -1,9 C-4,9 -8,7 -9,3 C-10,0 -9,-4 -7,-6 C-5,-8 -2,-9 0,-9 Z"/>
    <circle cx="0" cy="0" r="3.2" fill="#111" stroke="none"/>
  </g>
</svg>
